<svg width="1200" height="900" viewBox="0 0 1200 900" fill="none" xmlns="http://www.w3.org/2000/svg">
  <rect width="1200" height="900" rx="48" fill="#EEF0FF"/>
  <rect x="80" y="110" width="1040" height="680" rx="36" fill="#FFFFFF"/>
  <rect x="130" y="170" width="720" height="460" rx="28" fill="#D9F0F8"/>
  <circle cx="490" cy="400" r="90" fill="#4C6FFF"/>
  <path d="M470 355L560 400L470 445V355Z" fill="#FFFFFF"/>
  <rect x="885" y="190" width="220" height="150" rx="20" fill="#E1E7FB"/>
  <rect x="915" y="230" width="160" height="18" rx="9" fill="#BFCBFA"/>
  <rect x="915" y="260" width="120" height="14" rx="7" fill="#C8D2FB"/>
  <rect x="885" y="365" width="220" height="230" rx="20" fill="#F6F8FF"/>
  <rect x="915" y="410" width="160" height="16" rx="8" fill="#D6DEF9"/>
  <rect x="915" y="440" width="140" height="16" rx="8" fill="#D6DEF9"/>
  <rect x="915" y="470" width="170" height="16" rx="8" fill="#D6DEF9"/>
</svg>